<?xml version="1.0" encoding="UTF-8" standalone="no"?>
<!DOCTYPE svg PUBLIC "-//W3C//DTD SVG 1.1//EN" "http://www.w3.org/Graphics/SVG/1.1/DTD/svg11.dtd">
<svg width="100%" height="100%" viewBox="0 0 922 630" version="1.1" xmlns="http://www.w3.org/2000/svg" xmlns:xlink="http://www.w3.org/1999/xlink" xml:space="preserve" xmlns:serif="http://www.serif.com/" style="fill-rule:evenodd;clip-rule:evenodd;stroke-linejoin:round;stroke-miterlimit:2;">
    <g transform="matrix(1,0,0,1,-137.217,-225.792)">
        <g transform="matrix(4.16667,0,0,4.16667,0,0)">
            <g transform="matrix(-45.8938,105.24,105.24,45.8938,130.277,58.3916)">
                <path d="M0.123,-0.295C0.162,-0.331 0.205,-0.359 0.253,-0.378C0.301,-0.397 0.352,-0.406 0.405,-0.406C0.457,-0.405 0.51,-0.394 0.561,-0.372L0.807,-0.265C0.864,-0.24 0.89,-0.173 0.865,-0.115C0.84,-0.058 0.773,-0.032 0.716,-0.057L0.47,-0.164C0.448,-0.174 0.425,-0.179 0.402,-0.179C0.379,-0.179 0.357,-0.175 0.336,-0.167C0.315,-0.159 0.296,-0.147 0.279,-0.131C0.279,-0.131 0.279,-0.131 0.279,-0.131C0.246,-0.098 0.225,-0.052 0.225,-0.005C0.225,0.018 0.228,0.04 0.237,0.061C0.245,0.081 0.257,0.101 0.273,0.117C0.289,0.134 0.308,0.148 0.33,0.157L0.342,0.162C0.351,0.172 0.389,0.217 0.388,0.286C0.387,0.354 0.347,0.397 0.338,0.406C0.289,0.394 0.19,0.362 0.108,0.274C0.055,0.216 0.031,0.158 0.025,0.144C0.007,0.096 -0.003,0.045 -0.002,-0.008C-0.002,-0.061 0.009,-0.113 0.032,-0.164C0.054,-0.215 0.085,-0.259 0.123,-0.295Z" style="fill:url(#_Linear1);fill-rule:nonzero;"/>
            </g>
            <g transform="matrix(-35.8782,82.2726,82.2726,35.8782,191.369,99.8306)">
                <path d="M0.141,0.142C0.186,0.168 0.231,0.194 0.276,0.219C0.304,0.231 0.333,0.236 0.363,0.236C0.393,0.236 0.421,0.23 0.447,0.219C0.473,0.208 0.497,0.191 0.519,0.17C0.519,0.17 0.519,0.17 0.519,0.17C0.561,0.128 0.585,0.068 0.584,0.008C0.584,-0.021 0.578,-0.05 0.567,-0.076C0.556,-0.102 0.54,-0.126 0.519,-0.147C0.498,-0.168 0.473,-0.185 0.444,-0.196L0.429,-0.202C0.445,-0.219 0.491,-0.271 0.502,-0.354C0.513,-0.444 0.475,-0.51 0.463,-0.529C0.535,-0.5 0.635,-0.448 0.724,-0.352C0.754,-0.32 0.8,-0.27 0.834,-0.189C0.86,-0.128 0.873,-0.063 0.875,0.004C0.876,0.072 0.863,0.139 0.837,0.205C0.81,0.271 0.772,0.328 0.724,0.376C0.676,0.423 0.621,0.46 0.56,0.486C0.5,0.511 0.435,0.525 0.368,0.526C0.3,0.528 0.232,0.515 0.167,0.488C0.127,0.469 0.086,0.45 0.046,0.431C-0.001,0.381 -0.015,0.309 0.01,0.247C0.01,0.246 0.011,0.244 0.012,0.243C0.048,0.16 0.136,0.143 0.141,0.142Z" style="fill:url(#_Linear2);fill-rule:nonzero;"/>
            </g>
            <g transform="matrix(-17.9381,41.1339,41.1339,17.9381,186.232,98.6161)">
                <path d="M0.077,-0.353C0.082,-0.364 0.094,-0.369 0.105,-0.364L0.762,-0.078C0.857,-0.037 0.901,0.074 0.859,0.17L0.779,0.353C0.774,0.364 0.762,0.369 0.751,0.364L0.142,0.099C0.02,0.046 -0.035,-0.096 0.018,-0.218L0.077,-0.353Z" style="fill:url(#_Linear3);fill-rule:nonzero;"/>
            </g>
            <g transform="matrix(-17.9381,41.1339,41.1339,17.9381,119.084,98.6163)">
                <path d="M0.077,-0.353C0.082,-0.364 0.094,-0.369 0.105,-0.364L0.762,-0.078C0.857,-0.037 0.901,0.074 0.859,0.17L0.779,0.353C0.774,0.364 0.762,0.369 0.751,0.364L0.142,0.099C0.02,0.046 -0.035,-0.096 0.018,-0.218L0.077,-0.353Z" style="fill:url(#_Linear4);fill-rule:nonzero;"/>
            </g>
        </g>
        <g transform="matrix(4.16667,0,0,4.16667,0,0)">
            <g transform="matrix(8.84229,0,0,-8.84229,32.9321,199.959)">
                <path d="M-0,0.588L-0,-0.588L0.366,-0.588L0.366,-0.161L0.57,-0.161C0.701,-0.161 0.805,-0.126 0.883,-0.057C0.961,0.012 1,0.102 1,0.214C1,0.288 0.981,0.354 0.943,0.413C0.905,0.472 0.853,0.516 0.788,0.545C0.723,0.574 0.627,0.588 0.502,0.588L-0,0.588ZM0.361,0.319L0.494,0.319C0.592,0.319 0.641,0.282 0.641,0.209C0.641,0.131 0.588,0.092 0.482,0.092L0.361,0.092L0.361,0.319Z" style="fill:url(#_Linear5);fill-rule:nonzero;"/>
            </g>
            <g transform="matrix(7.33398,0,0,-7.33398,42.0562,199.959)">
                <path d="M-0,0.709L-0,0.369L0.294,0.369L0.294,-0.709L0.706,-0.709L0.706,0.369L1,0.369L1,0.709L-0,0.709Z" style="fill:url(#_Linear6);fill-rule:nonzero;"/>
            </g>
            <g transform="matrix(2.89404,0,0,-2.89404,49.6792,203.767)">
                <rect x="-0" y="-0.48" width="1" height="0.961" style="fill:url(#_Linear7);"/>
            </g>
            <g transform="matrix(8.8877,0,0,-8.8877,58.0801,199.959)">
                <path d="M0.708,0.585L0.708,0.239C0.708,0.134 0.717,0.032 0.735,-0.068C0.707,-0.004 0.666,0.071 0.612,0.156L0.339,0.585L-0,0.585L-0,-0.585L0.291,-0.585L0.291,-0.018C0.291,0.034 0.282,0.098 0.263,0.174C0.305,0.079 0.346,-0.002 0.387,-0.068L0.708,-0.585L1,-0.585L1,0.585L0.708,0.585Z" style="fill:url(#_Linear8);fill-rule:nonzero;"/>
            </g>
            <g transform="matrix(8.5376,0,0,-8.5376,68.6743,200.039)">
                <path d="M0.706,0.618L0.706,-0.095C0.706,-0.165 0.703,-0.213 0.697,-0.237C0.692,-0.262 0.674,-0.284 0.645,-0.303C0.617,-0.322 0.58,-0.332 0.535,-0.332C0.481,-0.332 0.442,-0.318 0.417,-0.292C0.392,-0.265 0.38,-0.222 0.38,-0.164L0.38,0.618L-0,0.618L-0,-0.208C-0,-0.353 0.046,-0.458 0.14,-0.522C0.233,-0.586 0.356,-0.618 0.509,-0.618C0.655,-0.618 0.773,-0.585 0.864,-0.518C0.955,-0.451 1,-0.341 1,-0.188L1,0.618L0.706,0.618Z" style="fill:url(#_Linear9);fill-rule:nonzero;"/>
            </g>
            <g transform="matrix(9.32959,0,0,-9.32959,77.8437,199.959)">
                <path d="M0.176,0.47C0.096,0.4 0.056,0.313 0.056,0.208C0.056,0.126 0.084,0.055 0.14,-0.005C0.195,-0.066 0.321,-0.115 0.516,-0.152C0.567,-0.163 0.603,-0.174 0.622,-0.188C0.642,-0.201 0.652,-0.22 0.652,-0.244C0.652,-0.289 0.609,-0.312 0.523,-0.312C0.413,-0.312 0.344,-0.267 0.318,-0.177L0,-0.235C0.064,-0.461 0.231,-0.574 0.503,-0.574C0.651,-0.574 0.771,-0.539 0.863,-0.469C0.954,-0.399 1,-0.308 1,-0.195C1,-0.124 0.981,-0.062 0.944,-0.009C0.906,0.043 0.859,0.08 0.803,0.102C0.747,0.124 0.652,0.149 0.519,0.177C0.471,0.187 0.438,0.198 0.421,0.209C0.404,0.221 0.396,0.237 0.396,0.258C0.396,0.304 0.433,0.327 0.508,0.327C0.597,0.327 0.657,0.29 0.686,0.215L0.97,0.301C0.897,0.483 0.747,0.574 0.52,0.574C0.37,0.574 0.256,0.539 0.176,0.47Z" style="fill:url(#_Linear10);fill-rule:nonzero;"/>
            </g>
            <g transform="matrix(9.84375,0,0,-9.84375,87.4302,199.959)">
                <path d="M0.326,0.528L-0,-0.528L0.263,-0.528L0.327,-0.32L0.61,-0.32L0.669,-0.528L1,-0.528L0.669,0.528L0.326,0.528ZM0.467,0.217L0.553,-0.089L0.382,-0.089L0.467,0.217Z" style="fill:url(#_Linear11);fill-rule:nonzero;"/>
            </g>
            <g transform="matrix(8.8877,0,0,-8.8877,98.2314,199.959)">
                <path d="M0.708,0.585L0.708,0.239C0.708,0.134 0.717,0.032 0.735,-0.068C0.707,-0.004 0.666,0.071 0.612,0.156L0.339,0.585L-0,0.585L-0,-0.585L0.291,-0.585L0.291,-0.018C0.291,0.034 0.282,0.098 0.263,0.174C0.305,0.079 0.346,-0.002 0.388,-0.068L0.708,-0.585L1,-0.585L1,0.585L0.708,0.585Z" style="fill:url(#_Linear12);fill-rule:nonzero;"/>
            </g>
            <g transform="matrix(7.33398,0,0,-7.33398,108.026,199.959)">
                <path d="M0,0.709L0,0.369L0.294,0.369L0.294,-0.709L0.706,-0.709L0.706,0.369L1,0.369L1,0.709L0,0.709Z" style="fill:url(#_Linear13);fill-rule:nonzero;"/>
            </g>
            <g transform="matrix(9.84375,0,0,-9.84375,114.848,199.959)">
                <path d="M0.326,0.528L0,-0.528L0.263,-0.528L0.327,-0.32L0.61,-0.32L0.669,-0.528L1,-0.528L0.669,0.528L0.326,0.528ZM0.467,0.217L0.553,-0.089L0.382,-0.089L0.467,0.217Z" style="fill:url(#_Linear14);fill-rule:nonzero;"/>
            </g>
            <g transform="matrix(9.25342,0,0,-9.25342,125.649,199.959)">
                <path d="M-0,0.562L-0,-0.562L0.345,-0.562L0.345,-0.132L0.454,-0.132L0.618,-0.562L1,-0.562L0.797,-0.072C0.877,-0.034 0.93,0.01 0.956,0.059C0.983,0.109 0.996,0.166 0.996,0.231C0.996,0.33 0.96,0.41 0.888,0.471C0.817,0.531 0.716,0.562 0.587,0.562L-0,0.562ZM0.345,0.323L0.504,0.323C0.592,0.323 0.636,0.287 0.636,0.215C0.636,0.18 0.623,0.154 0.597,0.135C0.57,0.117 0.536,0.108 0.492,0.108L0.345,0.108L0.345,0.323Z" style="fill:url(#_Linear15);fill-rule:nonzero;"/>
            </g>
            <g transform="matrix(9.84375,0,0,-9.84375,135.556,199.959)">
                <path d="M0.326,0.528L-0,-0.528L0.263,-0.528L0.327,-0.32L0.61,-0.32L0.669,-0.528L1,-0.528L0.669,0.528L0.326,0.528ZM0.467,0.217L0.553,-0.089L0.382,-0.089L0.467,0.217Z" style="fill:url(#_Linear16);fill-rule:nonzero;"/>
            </g>
            <g transform="matrix(9.84473,0,0,-9.84473,149.401,199.959)">
                <path d="M0.326,0.528L0,-0.528L0.263,-0.528L0.327,-0.32L0.609,-0.32L0.669,-0.528L1,-0.528L0.669,0.528L0.326,0.528ZM0.467,0.217L0.552,-0.089L0.382,-0.089L0.467,0.217Z" style="fill:url(#_Linear17);fill-rule:nonzero;"/>
            </g>
            <g transform="matrix(9.25391,0,0,-9.25391,160.203,199.959)">
                <path d="M-0,0.562L-0,-0.562L0.345,-0.562L0.345,-0.132L0.454,-0.132L0.618,-0.562L1,-0.562L0.797,-0.072C0.877,-0.034 0.93,0.01 0.956,0.059C0.983,0.109 0.996,0.166 0.996,0.231C0.996,0.33 0.96,0.41 0.888,0.471C0.817,0.531 0.716,0.562 0.587,0.562L-0,0.562ZM0.345,0.323L0.504,0.323C0.592,0.323 0.636,0.287 0.636,0.215C0.636,0.18 0.623,0.154 0.597,0.135C0.57,0.117 0.535,0.108 0.492,0.108L0.345,0.108L0.345,0.323Z" style="fill:url(#_Linear18);fill-rule:nonzero;"/>
            </g>
            <g transform="matrix(9.89355,0,0,-9.89355,170.378,199.959)">
                <path d="M0.134,0.388C0.044,0.286 0,0.156 0,-0.001C0,-0.165 0.047,-0.296 0.14,-0.394C0.233,-0.492 0.353,-0.542 0.501,-0.542C0.648,-0.542 0.768,-0.491 0.861,-0.391C0.954,-0.29 1,-0.156 1,0.01C1,0.172 0.954,0.3 0.862,0.397C0.77,0.493 0.65,0.542 0.504,0.542C0.346,0.542 0.223,0.49 0.134,0.388ZM0.347,-0.01C0.347,0.199 0.4,0.303 0.506,0.303C0.604,0.303 0.653,0.212 0.653,0.029C0.653,-0.097 0.641,-0.184 0.617,-0.232C0.593,-0.279 0.554,-0.303 0.5,-0.303C0.398,-0.303 0.347,-0.205 0.347,-0.01Z" style="fill:url(#_Linear19);fill-rule:nonzero;"/>
            </g>
            <g transform="matrix(11.3018,0,0,-11.3018,181.619,199.959)">
                <path d="M0.63,0.46L0.502,-0.029L0.369,0.46L-0,0.46L-0,-0.46L0.212,-0.46L0.212,0.198L0.389,-0.46L0.568,-0.46L0.738,0.198L0.738,-0.46L1,-0.46L1,0.46L0.63,0.46Z" style="fill:url(#_Linear20);fill-rule:nonzero;"/>
            </g>
            <g transform="matrix(9.84375,0,0,-9.84375,193.88,199.959)">
                <path d="M0.326,0.528L0,-0.528L0.263,-0.528L0.327,-0.32L0.609,-0.32L0.669,-0.528L1,-0.528L0.669,0.528L0.326,0.528ZM0.467,0.217L0.552,-0.089L0.382,-0.089L0.467,0.217Z" style="fill:url(#_Linear21);fill-rule:nonzero;"/>
            </g>
            <g transform="matrix(9.10156,0,0,-9.10156,208.115,199.959)">
                <path d="M0.136,0.424C0.045,0.314 -0,0.169 -0,-0.01C-0,-0.19 0.048,-0.332 0.143,-0.435C0.239,-0.537 0.364,-0.589 0.519,-0.589C0.648,-0.589 0.756,-0.551 0.845,-0.477C0.933,-0.402 0.985,-0.294 1,-0.154L0.68,-0.135C0.668,-0.261 0.616,-0.324 0.524,-0.324C0.472,-0.324 0.432,-0.302 0.403,-0.257C0.374,-0.213 0.36,-0.128 0.36,-0.004C0.36,0.218 0.415,0.329 0.526,0.329C0.565,0.329 0.6,0.312 0.629,0.278C0.658,0.244 0.673,0.189 0.673,0.113L1,0.13C0.989,0.269 0.943,0.38 0.862,0.463C0.781,0.547 0.665,0.589 0.514,0.589C0.352,0.589 0.226,0.534 0.136,0.424Z" style="fill:url(#_Linear22);fill-rule:nonzero;"/>
            </g>
            <g transform="matrix(9.25391,0,0,-9.25391,218.382,199.959)">
                <path d="M-0,0.562L-0,-0.562L0.345,-0.562L0.345,-0.132L0.454,-0.132L0.618,-0.562L1,-0.562L0.797,-0.072C0.877,-0.034 0.93,0.01 0.956,0.059C0.983,0.109 0.996,0.166 0.996,0.231C0.996,0.33 0.96,0.41 0.889,0.471C0.817,0.531 0.716,0.562 0.587,0.562L-0,0.562ZM0.345,0.323L0.504,0.323C0.592,0.323 0.636,0.287 0.636,0.215C0.636,0.18 0.623,0.154 0.597,0.135C0.57,0.117 0.535,0.108 0.492,0.108L0.345,0.108L0.345,0.323Z" style="fill:url(#_Linear23);fill-rule:nonzero;"/>
            </g>
            <g transform="matrix(9.84375,0,0,-9.84375,228.288,199.959)">
                <path d="M0.326,0.528L-0,-0.528L0.263,-0.528L0.327,-0.32L0.609,-0.32L0.669,-0.528L1,-0.528L0.669,0.528L0.326,0.528ZM0.467,0.217L0.552,-0.089L0.382,-0.089L0.467,0.217Z" style="fill:url(#_Linear24);fill-rule:nonzero;"/>
            </g>
            <g transform="matrix(7.5166,0,0,-7.5166,239.09,199.959)">
                <path d="M-0,0.692L-0,-0.692L0.413,-0.692L0.413,-0.174L0.864,-0.174L0.864,0.137L0.413,0.137L0.413,0.362L1,0.362L1,0.692L-0,0.692Z" style="fill:url(#_Linear25);fill-rule:nonzero;"/>
            </g>
            <g transform="matrix(7.33398,0,0,-7.33398,246.713,199.959)">
                <path d="M-0,0.709L-0,0.369L0.294,0.369L0.294,-0.709L0.706,-0.709L0.706,0.369L1,0.369L1,0.709L-0,0.709Z" style="fill:url(#_Linear26);fill-rule:nonzero;"/>
            </g>
        </g>
    </g>
    <defs>
        <linearGradient id="_Linear1" x1="0" y1="0" x2="1" y2="0" gradientUnits="userSpaceOnUse" gradientTransform="matrix(1,0,0,-1,0,0.000332005)"><stop offset="0" style="stop-color:rgb(151,83,35);stop-opacity:1"/><stop offset="0.04" style="stop-color:rgb(151,83,35);stop-opacity:1"/><stop offset="1" style="stop-color:rgb(196,153,108);stop-opacity:1"/></linearGradient>
        <linearGradient id="_Linear2" x1="0" y1="0" x2="1" y2="0" gradientUnits="userSpaceOnUse" gradientTransform="matrix(1,5.55112e-17,5.55112e-17,-1,0,-0.00123904)"><stop offset="0" style="stop-color:rgb(57,89,91);stop-opacity:1"/><stop offset="1" style="stop-color:rgb(105,147,143);stop-opacity:1"/></linearGradient>
        <linearGradient id="_Linear3" x1="0" y1="0" x2="1" y2="0" gradientUnits="userSpaceOnUse" gradientTransform="matrix(1,5.55112e-17,5.55112e-17,-1,0,-7.23246e-06)"><stop offset="0" style="stop-color:rgb(151,83,35);stop-opacity:1"/><stop offset="0.04" style="stop-color:rgb(151,83,35);stop-opacity:1"/><stop offset="1" style="stop-color:rgb(196,153,108);stop-opacity:1"/></linearGradient>
        <linearGradient id="_Linear4" x1="0" y1="0" x2="1" y2="0" gradientUnits="userSpaceOnUse" gradientTransform="matrix(1,5.55112e-17,5.55112e-17,-1,0,-1.48188e-05)"><stop offset="0" style="stop-color:rgb(57,89,91);stop-opacity:1"/><stop offset="1" style="stop-color:rgb(105,147,143);stop-opacity:1"/></linearGradient>
        <linearGradient id="_Linear5" x1="0" y1="0" x2="1" y2="0" gradientUnits="userSpaceOnUse" gradientTransform="matrix(1,0,0,-1,0,1.65116e-05)"><stop offset="0" style="stop-color:rgb(151,83,35);stop-opacity:1"/><stop offset="0.04" style="stop-color:rgb(151,83,35);stop-opacity:1"/><stop offset="1" style="stop-color:rgb(196,153,108);stop-opacity:1"/></linearGradient>
        <linearGradient id="_Linear6" x1="0" y1="0" x2="1" y2="0" gradientUnits="userSpaceOnUse" gradientTransform="matrix(1,0,0,-1,0,1.99073e-05)"><stop offset="0" style="stop-color:rgb(151,83,35);stop-opacity:1"/><stop offset="0.04" style="stop-color:rgb(151,83,35);stop-opacity:1"/><stop offset="1" style="stop-color:rgb(196,153,108);stop-opacity:1"/></linearGradient>
        <linearGradient id="_Linear7" x1="0" y1="0" x2="1" y2="0" gradientUnits="userSpaceOnUse" gradientTransform="matrix(1,0,0,-1,0,0.000314992)"><stop offset="0" style="stop-color:rgb(151,83,35);stop-opacity:1"/><stop offset="0.04" style="stop-color:rgb(151,83,35);stop-opacity:1"/><stop offset="1" style="stop-color:rgb(196,153,108);stop-opacity:1"/></linearGradient>
        <linearGradient id="_Linear8" x1="0" y1="0" x2="1" y2="0" gradientUnits="userSpaceOnUse" gradientTransform="matrix(1,0,0,-1,0,1.64272e-05)"><stop offset="0" style="stop-color:rgb(151,83,35);stop-opacity:1"/><stop offset="0.04" style="stop-color:rgb(151,83,35);stop-opacity:1"/><stop offset="1" style="stop-color:rgb(196,153,108);stop-opacity:1"/></linearGradient>
        <linearGradient id="_Linear9" x1="0" y1="0" x2="1" y2="0" gradientUnits="userSpaceOnUse" gradientTransform="matrix(1,0,0,-1,0,-1.19472e-06)"><stop offset="0" style="stop-color:rgb(151,83,35);stop-opacity:1"/><stop offset="0.04" style="stop-color:rgb(151,83,35);stop-opacity:1"/><stop offset="1" style="stop-color:rgb(196,153,108);stop-opacity:1"/></linearGradient>
        <linearGradient id="_Linear10" x1="0" y1="0" x2="1" y2="0" gradientUnits="userSpaceOnUse" gradientTransform="matrix(1,0,0,-1,0,1.56491e-05)"><stop offset="0" style="stop-color:rgb(151,83,35);stop-opacity:1"/><stop offset="0.04" style="stop-color:rgb(151,83,35);stop-opacity:1"/><stop offset="1" style="stop-color:rgb(196,153,108);stop-opacity:1"/></linearGradient>
        <linearGradient id="_Linear11" x1="0" y1="0" x2="1" y2="0" gradientUnits="userSpaceOnUse" gradientTransform="matrix(1,0,0,-1,0,1.48317e-05)"><stop offset="0" style="stop-color:rgb(151,83,35);stop-opacity:1"/><stop offset="0.04" style="stop-color:rgb(151,83,35);stop-opacity:1"/><stop offset="1" style="stop-color:rgb(196,153,108);stop-opacity:1"/></linearGradient>
        <linearGradient id="_Linear12" x1="0" y1="0" x2="1" y2="0" gradientUnits="userSpaceOnUse" gradientTransform="matrix(1,0,0,-1,0,1.64272e-05)"><stop offset="0" style="stop-color:rgb(151,83,35);stop-opacity:1"/><stop offset="0.04" style="stop-color:rgb(151,83,35);stop-opacity:1"/><stop offset="1" style="stop-color:rgb(196,153,108);stop-opacity:1"/></linearGradient>
        <linearGradient id="_Linear13" x1="0" y1="0" x2="1" y2="0" gradientUnits="userSpaceOnUse" gradientTransform="matrix(1,0,0,-1,0,1.99073e-05)"><stop offset="0" style="stop-color:rgb(151,83,35);stop-opacity:1"/><stop offset="0.04" style="stop-color:rgb(151,83,35);stop-opacity:1"/><stop offset="1" style="stop-color:rgb(196,153,108);stop-opacity:1"/></linearGradient>
        <linearGradient id="_Linear14" x1="0" y1="0" x2="1" y2="0" gradientUnits="userSpaceOnUse" gradientTransform="matrix(1,0,0,-1,0,1.48317e-05)"><stop offset="0" style="stop-color:rgb(151,83,35);stop-opacity:1"/><stop offset="0.04" style="stop-color:rgb(151,83,35);stop-opacity:1"/><stop offset="1" style="stop-color:rgb(196,153,108);stop-opacity:1"/></linearGradient>
        <linearGradient id="_Linear15" x1="0" y1="0" x2="1" y2="0" gradientUnits="userSpaceOnUse" gradientTransform="matrix(1,0,0,-1,0,1.5778e-05)"><stop offset="0" style="stop-color:rgb(151,83,35);stop-opacity:1"/><stop offset="0.04" style="stop-color:rgb(151,83,35);stop-opacity:1"/><stop offset="1" style="stop-color:rgb(196,153,108);stop-opacity:1"/></linearGradient>
        <linearGradient id="_Linear16" x1="0" y1="0" x2="1" y2="0" gradientUnits="userSpaceOnUse" gradientTransform="matrix(1,0,0,-1,0,1.48317e-05)"><stop offset="0" style="stop-color:rgb(151,83,35);stop-opacity:1"/><stop offset="0.04" style="stop-color:rgb(151,83,35);stop-opacity:1"/><stop offset="1" style="stop-color:rgb(196,153,108);stop-opacity:1"/></linearGradient>
        <linearGradient id="_Linear17" x1="0" y1="0" x2="1" y2="0" gradientUnits="userSpaceOnUse" gradientTransform="matrix(1,0,0,-1,0,1.48303e-05)"><stop offset="0" style="stop-color:rgb(151,83,35);stop-opacity:1"/><stop offset="0.04" style="stop-color:rgb(151,83,35);stop-opacity:1"/><stop offset="1" style="stop-color:rgb(196,153,108);stop-opacity:1"/></linearGradient>
        <linearGradient id="_Linear18" x1="0" y1="0" x2="1" y2="0" gradientUnits="userSpaceOnUse" gradientTransform="matrix(1,0,0,-1,0,1.57771e-05)"><stop offset="0" style="stop-color:rgb(151,83,35);stop-opacity:1"/><stop offset="0.04" style="stop-color:rgb(151,83,35);stop-opacity:1"/><stop offset="1" style="stop-color:rgb(196,153,108);stop-opacity:1"/></linearGradient>
        <linearGradient id="_Linear19" x1="0" y1="0" x2="1" y2="0" gradientUnits="userSpaceOnUse" gradientTransform="matrix(1,0,0,-1,0,1.47571e-05)"><stop offset="0" style="stop-color:rgb(151,83,35);stop-opacity:1"/><stop offset="0.04" style="stop-color:rgb(151,83,35);stop-opacity:1"/><stop offset="1" style="stop-color:rgb(196,153,108);stop-opacity:1"/></linearGradient>
        <linearGradient id="_Linear20" x1="0" y1="0" x2="1" y2="0" gradientUnits="userSpaceOnUse" gradientTransform="matrix(1,0,0,-1,0,1.29183e-05)"><stop offset="0" style="stop-color:rgb(151,83,35);stop-opacity:1"/><stop offset="0.04" style="stop-color:rgb(151,83,35);stop-opacity:1"/><stop offset="1" style="stop-color:rgb(196,153,108);stop-opacity:1"/></linearGradient>
        <linearGradient id="_Linear21" x1="0" y1="0" x2="1" y2="0" gradientUnits="userSpaceOnUse" gradientTransform="matrix(1,0,0,-1,0,1.48317e-05)"><stop offset="0" style="stop-color:rgb(151,83,35);stop-opacity:1"/><stop offset="0.04" style="stop-color:rgb(151,83,35);stop-opacity:1"/><stop offset="1" style="stop-color:rgb(196,153,108);stop-opacity:1"/></linearGradient>
        <linearGradient id="_Linear22" x1="0" y1="0" x2="1" y2="0" gradientUnits="userSpaceOnUse" gradientTransform="matrix(1,0,0,-1,0,1.60412e-05)"><stop offset="0" style="stop-color:rgb(151,83,35);stop-opacity:1"/><stop offset="0.04" style="stop-color:rgb(151,83,35);stop-opacity:1"/><stop offset="1" style="stop-color:rgb(196,153,108);stop-opacity:1"/></linearGradient>
        <linearGradient id="_Linear23" x1="0" y1="0" x2="1" y2="0" gradientUnits="userSpaceOnUse" gradientTransform="matrix(1,0,0,-1,0,1.57771e-05)"><stop offset="0" style="stop-color:rgb(151,83,35);stop-opacity:1"/><stop offset="0.04" style="stop-color:rgb(151,83,35);stop-opacity:1"/><stop offset="1" style="stop-color:rgb(196,153,108);stop-opacity:1"/></linearGradient>
        <linearGradient id="_Linear24" x1="0" y1="0" x2="1" y2="0" gradientUnits="userSpaceOnUse" gradientTransform="matrix(1,0,0,-1,0,1.48317e-05)"><stop offset="0" style="stop-color:rgb(151,83,35);stop-opacity:1"/><stop offset="0.04" style="stop-color:rgb(151,83,35);stop-opacity:1"/><stop offset="1" style="stop-color:rgb(196,153,108);stop-opacity:1"/></linearGradient>
        <linearGradient id="_Linear25" x1="0" y1="0" x2="1" y2="0" gradientUnits="userSpaceOnUse" gradientTransform="matrix(1,0,0,-1,0,1.94237e-05)"><stop offset="0" style="stop-color:rgb(151,83,35);stop-opacity:1"/><stop offset="0.04" style="stop-color:rgb(151,83,35);stop-opacity:1"/><stop offset="1" style="stop-color:rgb(196,153,108);stop-opacity:1"/></linearGradient>
        <linearGradient id="_Linear26" x1="0" y1="0" x2="1" y2="0" gradientUnits="userSpaceOnUse" gradientTransform="matrix(1,0,0,-1,0,1.99073e-05)"><stop offset="0" style="stop-color:rgb(151,83,35);stop-opacity:1"/><stop offset="0.04" style="stop-color:rgb(151,83,35);stop-opacity:1"/><stop offset="1" style="stop-color:rgb(196,153,108);stop-opacity:1"/></linearGradient>
    </defs>
</svg>
