<?xml version="1.0" encoding="UTF-8" standalone="no"?>
<!DOCTYPE svg PUBLIC "-//W3C//DTD SVG 1.1//EN" "http://www.w3.org/Graphics/SVG/1.1/DTD/svg11.dtd">
<svg width="100%" height="100%" viewBox="0 0 723 551" version="1.1" xmlns="http://www.w3.org/2000/svg" xmlns:xlink="http://www.w3.org/1999/xlink" xml:space="preserve" xmlns:serif="http://www.serif.com/" style="fill-rule:evenodd;clip-rule:evenodd;stroke-linejoin:round;stroke-miterlimit:2;">
    <g transform="matrix(1,0,0,1,-241.862,-251.775)">
        <g transform="matrix(4.16667,0,0,4.16667,0,0)">
            <g transform="matrix(-49.6561,113.867,113.867,49.6561,128.249,64.9722)">
                <path d="M0.123,-0.295C0.162,-0.331 0.205,-0.359 0.253,-0.378C0.301,-0.397 0.352,-0.406 0.405,-0.406C0.457,-0.406 0.51,-0.394 0.561,-0.372L0.807,-0.265C0.864,-0.24 0.89,-0.173 0.865,-0.115C0.84,-0.058 0.773,-0.032 0.716,-0.057L0.47,-0.164C0.448,-0.174 0.425,-0.178 0.402,-0.179C0.379,-0.179 0.357,-0.175 0.336,-0.167C0.315,-0.159 0.296,-0.147 0.279,-0.131C0.279,-0.131 0.279,-0.131 0.279,-0.131C0.246,-0.098 0.225,-0.052 0.225,-0.005C0.225,0.018 0.228,0.04 0.237,0.061C0.245,0.081 0.257,0.101 0.273,0.117C0.289,0.134 0.308,0.148 0.33,0.157L0.342,0.162C0.351,0.172 0.389,0.217 0.388,0.286C0.387,0.354 0.347,0.397 0.338,0.406C0.289,0.394 0.19,0.362 0.108,0.274C0.055,0.216 0.031,0.158 0.025,0.144C0.007,0.096 -0.003,0.045 -0.002,-0.008C-0.002,-0.061 0.009,-0.113 0.032,-0.164C0.054,-0.215 0.085,-0.259 0.123,-0.295Z" style="fill:url(#_Linear1);fill-rule:nonzero;"/>
            </g>
        </g>
        <g transform="matrix(4.16667,0,0,4.16667,0,0)">
            <g transform="matrix(-38.8194,89.017,89.017,38.8194,194.35,109.808)">
                <path d="M0.141,0.142C0.186,0.168 0.231,0.194 0.276,0.219C0.304,0.231 0.333,0.236 0.363,0.236C0.393,0.236 0.421,0.23 0.447,0.219C0.473,0.208 0.497,0.191 0.519,0.17C0.519,0.17 0.519,0.17 0.519,0.17C0.561,0.128 0.585,0.068 0.584,0.008C0.584,-0.021 0.578,-0.05 0.567,-0.076C0.556,-0.102 0.54,-0.126 0.519,-0.147C0.498,-0.168 0.473,-0.185 0.444,-0.196L0.429,-0.202C0.445,-0.219 0.491,-0.271 0.502,-0.354C0.513,-0.444 0.475,-0.51 0.463,-0.529C0.535,-0.5 0.635,-0.448 0.724,-0.352C0.754,-0.32 0.8,-0.27 0.834,-0.189C0.86,-0.128 0.873,-0.063 0.875,0.004C0.876,0.072 0.863,0.139 0.837,0.205C0.81,0.271 0.772,0.328 0.724,0.376C0.676,0.423 0.621,0.46 0.56,0.486C0.5,0.511 0.435,0.525 0.368,0.526C0.3,0.528 0.232,0.515 0.167,0.488C0.127,0.469 0.086,0.45 0.046,0.431C-0.001,0.381 -0.015,0.309 0.01,0.247C0.01,0.246 0.011,0.244 0.012,0.243C0.048,0.16 0.136,0.143 0.141,0.142Z" style="fill:url(#_Linear2);fill-rule:nonzero;"/>
            </g>
        </g>
        <g transform="matrix(4.16667,0,0,4.16667,0,0)">
            <g transform="matrix(-19.636,45.0275,45.0275,19.636,188.902,108.239)">
                <path d="M0.082,-0.35C0.087,-0.36 0.098,-0.365 0.108,-0.361L0.772,-0.072C0.859,-0.034 0.898,0.068 0.86,0.155L0.775,0.35C0.771,0.36 0.759,0.365 0.749,0.361L0.13,0.091C0.018,0.042 -0.032,-0.087 0.016,-0.199L0.082,-0.35Z" style="fill:url(#_Linear3);fill-rule:nonzero;"/>
            </g>
        </g>
        <g transform="matrix(4.16667,0,0,4.16667,0,0)">
            <g transform="matrix(-19.636,45.0275,45.0275,19.636,116.249,108.239)">
                <path d="M0.082,-0.35C0.087,-0.36 0.098,-0.365 0.108,-0.361L0.772,-0.072C0.859,-0.034 0.898,0.068 0.86,0.155L0.775,0.35C0.771,0.36 0.759,0.365 0.749,0.361L0.13,0.091C0.018,0.042 -0.032,-0.088 0.016,-0.199L0.082,-0.35Z" style="fill:url(#_Linear4);fill-rule:nonzero;"/>
            </g>
        </g>
        <g transform="matrix(4.16667,0,0,4.16667,0,0)">
            <g transform="matrix(15.9399,0,0,-15.9399,70.8259,181.001)">
                <path d="M0.782,0.706L0.782,0.685L0.833,0.685C0.859,0.684 0.873,0.665 0.873,0.629L0.873,-0.399L0.502,0.629C0.498,0.641 0.496,0.651 0.496,0.659C0.496,0.677 0.505,0.685 0.522,0.685L0.575,0.685L0.567,0.706L0,0.706L0,0.685L0.05,0.685C0.077,0.684 0.091,0.665 0.091,0.629L0.091,-0.629C0.091,-0.665 0.077,-0.684 0.05,-0.685L0,-0.685L0,-0.706L0.218,-0.706L0.218,-0.685L0.167,-0.685C0.14,-0.684 0.127,-0.665 0.127,-0.629L0.127,0.595C0.185,0.432 0.256,0.232 0.341,-0.006C0.425,-0.244 0.489,-0.421 0.532,-0.536C0.558,-0.598 0.588,-0.642 0.622,-0.666C0.656,-0.691 0.706,-0.704 0.77,-0.706L1,-0.706L1,-0.685L0.948,-0.685C0.921,-0.684 0.907,-0.665 0.907,-0.629L0.907,0.629C0.907,0.665 0.921,0.684 0.948,0.685L1,0.685L1,0.706L0.782,0.706Z" style="fill:url(#_Linear5);fill-rule:nonzero;"/>
            </g>
        </g>
        <g transform="matrix(4.16667,0,0,4.16667,0,0)">
            <g transform="matrix(17.5786,0,0,-17.5786,89.6579,180.97)">
                <path d="M0.104,-0.57C0.093,-0.605 0.076,-0.622 0.053,-0.622L0.005,-0.622L0,-0.64L0.197,-0.64L0.203,-0.622L0.157,-0.622C0.14,-0.622 0.132,-0.613 0.132,-0.596C0.132,-0.585 0.133,-0.576 0.135,-0.57L0.214,-0.305L0.461,-0.305L0.539,-0.572C0.542,-0.582 0.543,-0.589 0.543,-0.594C0.543,-0.612 0.534,-0.622 0.517,-0.622L0.472,-0.622L0.477,-0.64L1,-0.64L0.995,-0.622L0.949,-0.622C0.924,-0.622 0.907,-0.604 0.896,-0.569L0.463,0.64L0.104,-0.57ZM0.336,0.108L0.452,-0.274L0.223,-0.274L0.336,0.108Z" style="fill:url(#_Linear6);fill-rule:nonzero;"/>
            </g>
        </g>
        <g transform="matrix(4.16667,0,0,4.16667,0,0)">
            <g transform="matrix(18.2534,0,0,-18.2534,108.2,180.937)">
                <path d="M0.311,0.548C0.215,0.49 0.139,0.41 0.084,0.309C0.028,0.207 0,0.095 0,-0.028C0,-0.141 0.024,-0.244 0.072,-0.336C0.12,-0.429 0.187,-0.502 0.271,-0.555C0.356,-0.609 0.451,-0.636 0.556,-0.636C0.651,-0.636 0.732,-0.616 0.797,-0.577C0.862,-0.539 0.91,-0.491 0.942,-0.433C0.974,-0.376 0.989,-0.319 0.989,-0.264C0.989,-0.222 0.98,-0.188 0.961,-0.162C0.946,-0.217 0.913,-0.262 0.861,-0.297C0.809,-0.331 0.752,-0.349 0.69,-0.349C0.622,-0.349 0.56,-0.326 0.503,-0.282C0.446,-0.237 0.404,-0.17 0.377,-0.079C0.353,-0.001 0.342,0.083 0.342,0.173C0.342,0.278 0.358,0.371 0.392,0.452C0.425,0.533 0.469,0.583 0.525,0.6C0.538,0.605 0.55,0.607 0.563,0.607C0.609,0.607 0.646,0.583 0.675,0.534C0.704,0.486 0.718,0.426 0.718,0.356C0.718,0.304 0.711,0.254 0.695,0.204C0.727,0.195 0.756,0.19 0.783,0.19C0.844,0.19 0.896,0.209 0.938,0.246C0.979,0.283 1,0.327 1,0.378C1,0.431 0.978,0.48 0.935,0.525C0.906,0.556 0.863,0.583 0.808,0.604C0.753,0.625 0.692,0.636 0.627,0.636C0.512,0.636 0.406,0.607 0.311,0.548Z" style="fill:url(#_Linear7);fill-rule:nonzero;"/>
            </g>
        </g>
    </g>
    <defs>
        <linearGradient id="_Linear1" x1="0" y1="0" x2="1" y2="0" gradientUnits="userSpaceOnUse" gradientTransform="matrix(1,0,0,-1,0,0.000332192)"><stop offset="0" style="stop-color:rgb(151,83,35);stop-opacity:1"/><stop offset="0.04" style="stop-color:rgb(151,83,35);stop-opacity:1"/><stop offset="1" style="stop-color:rgb(196,153,108);stop-opacity:1"/></linearGradient>
        <linearGradient id="_Linear2" x1="0" y1="0" x2="1" y2="0" gradientUnits="userSpaceOnUse" gradientTransform="matrix(1,-5.55112e-17,-5.55112e-17,-1,0,-0.00124439)"><stop offset="0" style="stop-color:rgb(57,89,91);stop-opacity:1"/><stop offset="1" style="stop-color:rgb(105,147,143);stop-opacity:1"/></linearGradient>
        <linearGradient id="_Linear3" x1="0" y1="0" x2="1" y2="0" gradientUnits="userSpaceOnUse" gradientTransform="matrix(1,0,0,-1,0,-2.75694e-06)"><stop offset="0" style="stop-color:rgb(151,83,35);stop-opacity:1"/><stop offset="0.04" style="stop-color:rgb(151,83,35);stop-opacity:1"/><stop offset="1" style="stop-color:rgb(196,153,108);stop-opacity:1"/></linearGradient>
        <linearGradient id="_Linear4" x1="0" y1="0" x2="1" y2="0" gradientUnits="userSpaceOnUse" gradientTransform="matrix(1,0,0,-1,0,5.21835e-06)"><stop offset="0" style="stop-color:rgb(57,89,91);stop-opacity:1"/><stop offset="1" style="stop-color:rgb(105,147,143);stop-opacity:1"/></linearGradient>
        <linearGradient id="_Linear5" x1="0" y1="0" x2="1" y2="0" gradientUnits="userSpaceOnUse" gradientTransform="matrix(1,0,0,-1,0,-2.74781e-06)"><stop offset="0" style="stop-color:rgb(151,83,35);stop-opacity:1"/><stop offset="0.04" style="stop-color:rgb(151,83,35);stop-opacity:1"/><stop offset="1" style="stop-color:rgb(196,153,108);stop-opacity:1"/></linearGradient>
        <linearGradient id="_Linear6" x1="0" y1="0" x2="1" y2="0" gradientUnits="userSpaceOnUse" gradientTransform="matrix(1,0,0,-1,0,2.32897e-05)"><stop offset="0" style="stop-color:rgb(151,83,35);stop-opacity:1"/><stop offset="0.04" style="stop-color:rgb(151,83,35);stop-opacity:1"/><stop offset="1" style="stop-color:rgb(196,153,108);stop-opacity:1"/></linearGradient>
        <linearGradient id="_Linear7" x1="0" y1="0" x2="1" y2="0" gradientUnits="userSpaceOnUse" gradientTransform="matrix(1,0,0,-1,0,-7.53831e-06)"><stop offset="0" style="stop-color:rgb(151,83,35);stop-opacity:1"/><stop offset="0.04" style="stop-color:rgb(151,83,35);stop-opacity:1"/><stop offset="1" style="stop-color:rgb(196,153,108);stop-opacity:1"/></linearGradient>
    </defs>
</svg>
